<svg width="19" height="23" viewBox="0 0 19 23" fill="none" xmlns="http://www.w3.org/2000/svg">
<path d="M18.0907 4.80803C18.3198 5.0372 18.5163 5.34821 18.68 5.74107C18.8437 6.13393 18.9255 6.49405 18.9255 6.82143V20.9643C18.9255 21.2917 18.8109 21.5699 18.5818 21.7991C18.3526 22.0283 18.0743 22.1429 17.7469 22.1429H1.24693C0.91955 22.1429 0.641276 22.0283 0.412109 21.7991C0.182943 21.5699 0.0683594 21.2917 0.0683594 20.9643V1.32143C0.0683594 0.994047 0.182943 0.715774 0.412109 0.486607C0.641276 0.257439 0.91955 0.142856 1.24693 0.142856H12.2469C12.5743 0.142856 12.9344 0.224701 13.3273 0.388392C13.7201 0.552082 14.0312 0.748511 14.2603 0.977678L18.0907 4.80803ZM12.6398 1.8125V6.42857H17.2559C17.174 6.19122 17.084 6.02344 16.9858 5.92522L13.1431 2.08259C13.0449 1.98437 12.8771 1.89434 12.6398 1.8125ZM17.3541 20.5714V8H12.2469C11.9196 8 11.6413 7.88542 11.4121 7.65625C11.1829 7.42708 11.0684 7.14881 11.0684 6.82143V1.71428H1.63979V20.5714H17.3541ZM11.0438 13.2913C11.3139 13.5041 11.6576 13.7333 12.0751 13.9788C12.5579 13.9215 13.0367 13.8929 13.5114 13.8929C14.7146 13.8929 15.4389 14.0934 15.6844 14.4944C15.8154 14.6745 15.8236 14.8873 15.709 15.1328C15.709 15.141 15.7049 15.1492 15.6967 15.1574C15.6885 15.1656 15.6803 15.1737 15.6722 15.1819V15.1942C15.623 15.5052 15.3325 15.6607 14.8005 15.6607C14.4076 15.6607 13.937 15.5789 13.3887 15.4152C12.8403 15.2515 12.3083 15.0346 11.7927 14.7645C9.98391 14.9609 8.37974 15.3006 6.98019 15.7835C5.72796 17.9278 4.73763 19 4.00921 19C3.88644 19 3.77186 18.9714 3.66546 18.9141L3.37081 18.7667C3.36263 18.7586 3.33808 18.7381 3.29715 18.7054C3.21531 18.6235 3.19076 18.4762 3.22349 18.2634C3.29715 17.936 3.52632 17.5636 3.91099 17.1462C4.29567 16.7206 4.83584 16.3237 5.53153 15.9554C5.64611 15.8817 5.74023 15.9062 5.8139 16.029C5.83026 16.0454 5.83845 16.0618 5.83845 16.0781C6.26404 15.3824 6.70192 14.5763 7.15206 13.6596C7.70861 12.5465 8.13421 11.4743 8.42885 10.4431C8.23242 9.77195 8.10556 9.12128 8.04827 8.49107C7.99916 7.85268 8.02781 7.32887 8.13421 6.91964C8.22424 6.59226 8.39611 6.42857 8.64983 6.42857H8.90765H8.91992C9.10817 6.42857 9.2514 6.48995 9.34961 6.61272C9.49693 6.7846 9.53376 7.06287 9.4601 7.44754C9.44373 7.49665 9.42736 7.52939 9.41099 7.54576C9.41918 7.57031 9.42327 7.60305 9.42327 7.64397V8.01228C9.4069 9.01897 9.34961 9.80469 9.2514 10.3694C9.70154 11.7117 10.299 12.6856 11.0438 13.2913ZM3.97238 18.3371C4.39797 18.1406 4.95861 17.494 5.6543 16.3973C5.23689 16.7247 4.87677 17.0685 4.57394 17.4286C4.2793 17.7887 4.07878 18.0915 3.97238 18.3371ZM8.85854 7.04241C8.73577 7.38616 8.72759 7.92634 8.83399 8.66295C8.84217 8.60565 8.87082 8.42559 8.91992 8.12277C8.91992 8.09821 8.94857 7.92225 9.00586 7.59487C9.01404 7.56213 9.03041 7.52939 9.05497 7.49665C9.04678 7.48847 9.04269 7.48028 9.04269 7.4721C9.03451 7.45573 9.03041 7.44345 9.03041 7.43527C9.02223 7.25521 8.96903 7.10789 8.87081 6.9933C8.87081 7.00149 8.86672 7.00967 8.85854 7.01786V7.04241ZM7.33622 15.1574C8.44113 14.7154 9.60333 14.3839 10.8228 14.1629C10.8065 14.1548 10.7533 14.1179 10.6632 14.0525C10.5732 13.9788 10.5077 13.9215 10.4668 13.8806C9.84477 13.3322 9.32506 12.612 8.90765 11.7199C8.68666 12.4237 8.34701 13.2299 7.88867 14.1384C7.64314 14.5967 7.45898 14.9364 7.33622 15.1574ZM15.267 14.9609C15.0706 14.7645 14.4977 14.6663 13.5483 14.6663C14.1703 14.8955 14.6777 15.01 15.0706 15.01C15.1852 15.01 15.2588 15.006 15.2916 14.9978C15.2916 14.9896 15.2834 14.9773 15.267 14.9609Z" fill="white"/>
</svg>
