<svg width="47" height="47" viewBox="0 0 47 47" fill="none" xmlns="http://www.w3.org/2000/svg">
<path d="M25.8875 39.4223H24.9695V38.5036C24.9695 35.9706 22.9105 33.91 20.3795 33.91H6.42596C3.89503 33.91 1.83603 35.9706 1.83603 38.5036V39.4223H0.917969C0.410975 39.4223 0 39.8336 0 40.341V44.0159C0 44.5233 0.410975 44.9346 0.917969 44.9346H25.8874C26.3944 44.9346 26.8053 44.5233 26.8053 44.0159V40.341C26.8054 39.8336 26.3944 39.4223 25.8875 39.4223ZM3.67197 38.5036C3.67197 36.9839 4.90737 35.7475 6.42596 35.7475H20.3795C21.898 35.7475 23.1335 36.9839 23.1335 38.5036V39.4223H3.67197V38.5036ZM24.9694 43.0972H1.83603V41.2598H24.9695V43.0972H24.9694Z" fill="#CC996C"/>
<path d="M46.1946 40.2295L26.2018 20.2209L29.6671 16.7529C30.0152 16.8765 30.3803 16.9386 30.7456 16.9386C31.5684 16.9386 32.3911 16.6252 33.0176 15.9983C34.2703 14.7446 34.2703 12.7047 33.0176 11.4509L24.579 3.00569C23.3263 1.75193 21.2878 1.75193 20.0352 3.00569C19.1307 3.9109 18.8796 5.2258 19.2812 6.35885L15.8159 9.82684L15.037 9.0473C13.9632 7.97273 12.2161 7.97273 11.1423 9.0473C10.0685 10.122 10.0685 11.8704 11.1423 12.9451L11.9212 13.7246L8.45583 17.1926C7.3237 16.7907 6.00981 17.0421 5.10534 17.9473C3.85258 19.201 3.85258 21.241 5.10534 22.4947L13.5439 30.9399C14.1702 31.5668 14.9931 31.8802 15.8158 31.8802C16.6386 31.8802 17.4614 31.5668 18.0878 30.9399C18.9923 30.0347 19.2433 28.7198 18.8418 27.5868L22.3071 24.1188L42.3 44.1274C42.8369 44.6647 43.5422 44.9334 44.2473 44.9334C44.9525 44.9334 45.6578 44.6647 46.1947 44.1274C47.2684 43.0526 47.2684 41.3042 46.1946 40.2295ZM28.6684 27.8865L29.9666 26.5873L31.2648 27.8866L29.9666 29.1858L28.6684 27.8865ZM22.9562 20.8706L21.0088 18.9216C20.6503 18.5629 20.069 18.5629 19.7105 18.9216C19.352 19.2804 19.352 19.8622 19.7105 20.2209L21.6579 22.1698L20.3596 23.4691L17.1141 20.2211C16.9406 20.0474 16.7102 19.9519 16.4651 19.9519C16.22 19.9519 15.9896 20.0474 15.8161 20.2211C15.4581 20.5794 15.4581 21.1618 15.8161 21.5201L19.0612 24.7685L17.7632 26.0675L9.97378 18.272L20.3597 7.87799L28.1491 15.6736L22.9562 20.8706ZM21.3334 4.30498C21.6018 4.03629 21.9544 3.90199 22.3071 3.90199C22.6597 3.90199 23.0123 4.03638 23.2807 4.30498L31.7193 12.7502C32.2562 13.2875 32.2562 14.1618 31.7193 14.6991C31.1824 15.2363 30.3087 15.2363 29.772 14.6991L21.3335 6.25383C20.7965 5.71663 20.7964 4.84227 21.3334 4.30498ZM12.4405 11.6458C12.0824 11.2876 12.0824 10.7048 12.4405 10.3466C12.6194 10.1675 12.8545 10.0779 13.0896 10.0779C13.3246 10.0779 13.5597 10.1674 13.7386 10.3466L14.5175 11.1261L13.2194 12.4253L12.4405 11.6458ZM16.7895 29.6406C16.2527 30.1778 15.379 30.1778 14.8422 29.6406L6.40371 21.1953C5.86679 20.658 5.86679 19.7838 6.40371 19.2465C6.67212 18.9778 7.02472 18.8435 7.3774 18.8435C7.73008 18.8435 8.08267 18.9779 8.35109 19.2465L16.7896 27.6917C17.3263 28.229 17.3263 29.1033 16.7895 29.6406ZM24.9035 21.5202L28.6684 25.288L27.3702 26.5872L23.6053 22.8194L24.9035 21.5202ZM44.8963 42.828C44.5384 43.1863 43.9561 43.1863 43.5982 42.828L31.2649 30.4851L32.5631 29.1859L44.8963 41.5288C45.2544 41.887 45.2544 42.4698 44.8963 42.828Z" fill="#CC996C"/>
<path d="M13.8682 17.3529C13.6231 17.3529 13.3927 17.4485 13.2192 17.6221C12.8612 17.9804 12.8612 18.5638 13.2192 18.9221C13.3927 19.0948 13.6231 19.1903 13.8682 19.1903C14.1142 19.1903 14.3446 19.0948 14.5181 18.9221C14.8752 18.5638 14.8752 17.9804 14.5181 17.6221C14.3446 17.4485 14.1142 17.3529 13.8682 17.3529Z" fill="#CC996C"/>
</svg>
