<svg width="45" height="45" viewBox="0 0 45 45" fill="none" xmlns="http://www.w3.org/2000/svg">
<g clip-path="url(#clip0)">
<path d="M39.8174 31.757C39.5706 31.6547 39.2865 31.7112 39.0976 31.9001L31.8795 39.1182C31.6906 39.3072 31.6341 39.5913 31.7364 39.8381C31.8385 40.0849 32.0795 40.2458 32.3466 40.2458H39.5647C39.9296 40.2458 40.2252 39.9501 40.2252 39.5853V32.3672C40.2251 32.1001 40.0642 31.8592 39.8174 31.757ZM33.9409 38.9249L38.904 33.9618V38.9249H33.9409Z" fill="#CC996C"/>
<path d="M44.5924 21.1699C44.3456 21.0676 44.0615 21.1242 43.8725 21.313L41.8944 23.2912V9.84117C41.8944 9.47634 41.5986 9.18067 41.2339 9.18067H36.159L38.0012 7.33848C38.0014 7.33822 38.0017 7.33787 38.002 7.3376L39.777 5.56256C40.1573 5.18226 40.3668 4.67636 40.3668 4.13846C40.3668 3.60057 40.1573 3.09485 39.777 2.71437L37.7244 0.661769C37.3441 0.281465 36.8382 0.0720215 36.3003 0.0720215C35.7624 0.0720215 35.2566 0.281465 34.8762 0.661769L33.1003 2.43769L30.9544 4.58363L26.3574 9.18058H5.85529V2.64634C5.85529 2.28151 5.55953 1.98584 5.19479 1.98584C2.33042 1.98602 0 4.31627 0 7.18081V35.2343C0 35.2831 0.00562501 35.3306 0.0156446 35.3763C0.106875 36.5917 0.632726 37.721 1.51155 38.5783C2.45092 39.4945 3.69097 39.9991 5.00336 39.9991H25.1864L21.3852 43.8002C21.1964 43.9892 21.1398 44.2732 21.2421 44.5201C21.3443 44.7669 21.5852 44.9278 21.8523 44.9278H44.3396C44.7043 44.9278 45.0001 44.6321 45.0001 44.2673V21.7802C45.0001 21.5131 44.8391 21.2722 44.5924 21.1699ZM35.8105 1.59596C36.0805 1.32578 36.5204 1.32578 36.7904 1.59596L38.8431 3.64865C39.1133 3.91874 39.1133 4.35846 38.8431 4.62863L37.5343 5.9375L34.5015 2.90483L35.8105 1.59596ZM33.5674 3.83893L36.6001 6.87152L35.3882 8.08344L32.3557 5.05086L33.5674 3.83893ZM43.6793 29.2018H42.4607C42.0958 29.2018 41.8002 29.4975 41.8002 29.8623C41.8002 30.2272 42.0958 30.5228 42.4607 30.5228H43.6793V32.5132H42.4607C42.0958 32.5132 41.8002 32.8089 41.8002 33.1737C41.8002 33.5386 42.0958 33.8342 42.4607 33.8342H43.6793V35.8245H42.4607C42.0958 35.8245 41.8002 36.1202 41.8002 36.485C41.8002 36.8498 42.0958 37.1455 42.4607 37.1455H43.6793V39.1359H42.4607C42.0958 39.1359 41.8002 39.4316 41.8002 39.7964C41.8002 40.1612 42.0958 40.4569 42.4607 40.4569H43.6793V43.6071H23.4468L30.1184 36.9355C30.3764 36.6775 30.3764 36.2594 30.1184 36.0014C30.0888 35.9718 30.057 35.9461 30.0237 35.9233C29.7665 35.7472 29.4127 35.7731 29.1842 36.0014L26.5074 38.6782H5.00345C3.00024 38.6782 1.38762 37.1143 1.32416 35.1147C1.32794 34.9892 1.3377 34.8647 1.35334 34.7417C1.35343 34.741 1.35352 34.7403 1.35361 34.7396C1.36099 34.6811 1.36987 34.6229 1.37997 34.5651C1.38112 34.5585 1.38235 34.5519 1.38349 34.5453C1.39272 34.4937 1.40309 34.4424 1.41443 34.3913C1.41759 34.377 1.42093 34.3628 1.42427 34.3486C1.43429 34.3054 1.4451 34.2624 1.4567 34.2196C1.46303 34.1964 1.46962 34.1735 1.47639 34.1504C1.48606 34.1168 1.49608 34.0833 1.50671 34.0502C1.51735 34.017 1.52868 33.9842 1.5402 33.9515C1.5482 33.9285 1.55611 33.9056 1.56472 33.8828C1.5808 33.8396 1.59785 33.7968 1.61543 33.7543C1.62044 33.7421 1.62536 33.7297 1.63055 33.7175C1.65314 33.6648 1.6766 33.6126 1.70139 33.5611C1.70244 33.5589 1.70341 33.5567 1.70447 33.5545C2.22109 32.4854 3.21469 31.6884 4.40711 31.441C4.41045 31.4403 4.41379 31.4395 4.41713 31.4388C4.4718 31.4277 4.52699 31.4181 4.58254 31.4092C4.59177 31.4077 4.601 31.4059 4.6104 31.4045C4.66059 31.3968 4.7113 31.3909 4.76201 31.3851C4.77625 31.3836 4.7904 31.3814 4.80473 31.38C4.85368 31.375 4.90308 31.3718 4.95247 31.3687C4.96812 31.3677 4.98376 31.3661 4.9994 31.3653C5.06409 31.362 5.12931 31.3604 5.19479 31.3604C5.55953 31.3604 5.85529 31.0647 5.85529 30.6999V25.9108C5.85529 25.5459 5.55953 25.2503 5.19479 25.2503C4.83004 25.2503 4.53429 25.5459 4.53429 25.9108V30.0809C3.41895 30.222 2.38369 30.7195 1.56736 31.5166C1.48149 31.6005 1.4001 31.6877 1.32082 31.7763V7.18081C1.32082 5.26997 2.71178 3.67765 4.5342 3.36318V9.84117V23.2689V23.2689C4.5342 23.6337 4.82995 23.9295 5.1947 23.9295C5.55944 23.9295 5.8552 23.6337 5.8552 23.2689V23.2689V10.5017H25.0365L21.3852 14.153C21.1272 14.4111 21.1272 14.8291 21.3852 15.0871C21.6431 15.345 22.0613 15.345 22.3192 15.0871L27.0981 10.3082C27.0982 10.308 27.0983 10.3079 27.0985 10.3078L31.4214 5.98487L34.4539 9.01755L34.0981 9.37333C34.0979 9.37359 34.0975 9.37386 34.0972 9.37412L20.7793 22.6922L17.7467 19.6596L20.3719 17.0345C20.6298 16.7765 20.6298 16.3584 20.3719 16.1004C20.1139 15.8425 19.6957 15.8425 19.4378 16.1004L16.3456 19.1926C16.3291 19.2091 16.3136 19.2266 16.2991 19.2445C16.2943 19.2505 16.2899 19.2569 16.2854 19.2632C16.2761 19.2755 16.2669 19.288 16.2584 19.301C16.2536 19.3086 16.2492 19.3163 16.2446 19.3241C16.2373 19.3365 16.2303 19.3489 16.2239 19.3617C16.2196 19.3699 16.2159 19.3783 16.212 19.3869C16.2061 19.3998 16.2006 19.413 16.1956 19.4262C16.1939 19.4308 16.1916 19.4352 16.1899 19.4399L14.9031 23.0852L14.0258 25.5706C14.0142 25.6037 14.0058 25.6373 13.9996 25.6711H11.803C11.4383 25.6711 11.1425 25.9668 11.1425 26.3316C11.1425 26.6964 11.4383 26.9921 11.803 26.9921H30.0943C30.4592 26.9921 30.7548 26.6964 30.7548 26.3316C30.7548 25.9668 30.4592 25.6711 30.0943 25.6711H16.9711L20.9991 24.2492C21.0025 24.248 21.0056 24.2463 21.009 24.2451C21.0246 24.2393 21.04 24.2328 21.0552 24.2258C21.0613 24.223 21.0673 24.2204 21.0732 24.2175C21.089 24.2096 21.1046 24.2009 21.1199 24.1915C21.1248 24.1886 21.1299 24.1858 21.1348 24.1828C21.1507 24.1726 21.1661 24.1614 21.1813 24.1496C21.1851 24.1467 21.1891 24.1442 21.1928 24.1412C21.2111 24.1264 21.2291 24.1105 21.2462 24.0935L34.838 10.5018H40.5733V24.6123L31.1254 34.0603C30.8674 34.3183 30.8674 34.7364 31.1254 34.9944C31.1415 35.0105 31.1583 35.0256 31.1756 35.0397C31.2967 35.1384 31.4446 35.1878 31.5924 35.1878C31.7403 35.1878 31.8883 35.1384 32.0093 35.0397C32.0266 35.0257 32.0434 35.0105 32.0595 34.9944C32.0598 34.9941 32.0595 34.9944 32.0598 34.9941L43.6793 23.3745V29.2018ZM19.5713 23.3522L17.6793 24.0201L16.4188 22.7595L17.0867 20.8676L19.5713 23.3522Z" fill="#CC996C"/>
</g>
<defs>
<clipPath id="clip0">
<rect width="45" height="45" fill="white"/>
</clipPath>
</defs>
</svg>
