<svg width="45" height="41" viewBox="0 0 45 41" fill="none" xmlns="http://www.w3.org/2000/svg">
<path d="M39.661 14.0169C39.2392 14.0169 38.8983 14.3578 38.8983 14.7796V39.1864H1.52542V1.81351H38.8983V2.57622C38.8983 2.998 39.2392 3.33893 39.661 3.33893C40.0828 3.33893 40.4237 2.998 40.4237 2.57622V0.288086H0V40.7118H40.4237V14.7796C40.4237 14.3578 40.0828 14.0169 39.661 14.0169Z" fill="#CC996C"/>
<path d="M44.7766 3.56241C44.4784 3.26419 43.9963 3.26419 43.6981 3.56241L20.5933 26.6672L10.6246 16.6986C10.3264 16.4004 9.8444 16.4004 9.54618 16.6986C9.24795 16.9968 9.24795 17.4789 9.54618 17.7771L20.0541 28.285C20.2028 28.4337 20.398 28.5084 20.5933 28.5084C20.7885 28.5084 20.9838 28.4337 21.1325 28.285L44.7766 4.64088C45.0748 4.34266 45.0748 3.86063 44.7766 3.56241Z" fill="#CC996C"/>
</svg>
