<svg width="44" height="44" viewBox="0 0 44 44" fill="none" xmlns="http://www.w3.org/2000/svg">
<path d="M21.9999 3.43835C21.524 3.43835 21.1414 3.82164 21.1414 4.29687C21.1414 4.73919 21.4741 5.10726 21.9139 5.15092C22.4231 5.20145 22.8584 4.80485 22.8584 4.29687C22.8584 3.82095 22.4751 3.43835 21.9999 3.43835Z" fill="#CC996C"/>
<path d="M39.1875 5.15625C36.8182 5.15625 34.8906 3.22867 34.8906 0.859375C34.8906 0.384828 34.5058 0 34.0312 0H9.96875C9.4942 0 9.10938 0.384828 9.10938 0.859375C9.10938 3.22867 7.1818 5.15625 4.8125 5.15625C4.33795 5.15625 3.95312 5.54108 3.95312 6.01562V20.0398C3.95312 30.969 11.0769 40.7623 21.7532 43.9638C21.8337 43.9879 21.9168 44 22 44C22.0832 44 22.1665 43.9879 22.2469 43.9637C32.6919 40.8305 40.0469 31.2081 40.0469 20.0398V6.01562C40.0469 5.54108 39.662 5.15625 39.1875 5.15625ZM38.3281 20.0398C38.3281 30.3048 31.7779 39.1945 22 42.242C12.3001 39.2189 5.67188 30.2486 5.67188 20.0398V6.81381C8.30251 6.43586 10.389 4.34938 10.7669 1.71875H33.2331C33.611 4.34938 35.6975 6.43586 38.3281 6.81381V20.0398Z" fill="#CC996C"/>
<path d="M36.0948 7.94836C34.3026 7.16349 32.8834 5.74423 32.0985 3.95209C31.9615 3.63945 31.6527 3.4375 31.3113 3.4375H25.4358C24.9612 3.4375 24.5764 3.82233 24.5764 4.29688C24.5764 4.77142 24.9612 5.15625 25.4358 5.15625H30.7679C31.6759 6.93352 33.1134 8.37091 34.8906 9.27893V20.0398C34.8906 28.4499 29.8419 35.7064 22 38.6112C14.1581 35.7063 9.10938 28.4499 9.10938 20.0398V9.27893C10.8866 8.37091 12.324 6.93352 13.2321 5.15625H18.5642C19.0388 5.15625 19.4236 4.77142 19.4236 4.29688C19.4236 3.82233 19.0388 3.4375 18.5642 3.4375H12.6887C12.3473 3.4375 12.0385 3.63954 11.9015 3.95209C11.1166 5.74423 9.69736 7.16349 7.90522 7.94836C7.59266 8.08534 7.39062 8.39429 7.39062 8.73555V20.0398C7.39062 29.2534 13.0892 37.2834 21.7133 40.3353C21.806 40.3681 21.903 40.3845 22 40.3845C22.097 40.3845 22.194 40.3681 22.2867 40.3353C30.9036 37.286 36.6094 29.2609 36.6094 20.0398V8.73555C36.6094 8.3942 36.4073 8.08534 36.0948 7.94836Z" fill="#CC996C"/>
<path d="M22 12.5469C17.7353 12.5469 14.2656 16.0165 14.2656 20.2812C14.2656 24.546 17.7353 28.0156 22 28.0156C26.2647 28.0156 29.7344 24.546 29.7344 20.2812C29.7344 16.0165 26.2647 12.5469 22 12.5469ZM22 26.2969C18.683 26.2969 15.9844 23.5983 15.9844 20.2812C15.9844 16.9642 18.683 14.2656 22 14.2656C25.317 14.2656 28.0156 16.9642 28.0156 20.2812C28.0156 23.5983 25.317 26.2969 22 26.2969Z" fill="#CC996C"/>
<path d="M26.0452 17.9548C25.7096 17.6192 25.1656 17.6192 24.8298 17.9548L21.1407 21.644L20.0296 20.533C19.6939 20.1975 19.1499 20.1975 18.8142 20.533C18.4786 20.8686 18.4786 21.4127 18.8142 21.7484L20.5329 23.4671C20.7009 23.6348 20.9207 23.7188 21.1407 23.7188C21.3607 23.7188 21.5805 23.6348 21.7484 23.467L26.0452 19.1702C26.3808 18.8346 26.3808 18.2904 26.0452 17.9548Z" fill="#CC996C"/>
</svg>
