<svg width="42" height="42" viewBox="0 0 42 42" fill="none" xmlns="http://www.w3.org/2000/svg">
<path d="M38.3715 19.9114V19.1404H39.8682C40.244 19.1404 40.5486 18.8358 40.5486 18.46V16.2376H41.3197C41.6954 16.2376 42 15.933 42 15.5572V13.3801C42 13.136 41.8692 12.9105 41.6572 12.7894L21.3375 1.17816C21.1284 1.05869 20.8716 1.05869 20.6625 1.17816L0.342803 12.7894C0.130808 12.9105 0 13.1359 0 13.3801V15.5572C0 15.933 0.304613 16.2376 0.680346 16.2376H1.4514V18.46C1.4514 18.8358 1.75602 19.1404 2.13175 19.1404H3.62851V19.9114C3.62851 20.44 3.92197 20.9009 4.35421 21.141V33.7451H2.13175C1.75602 33.7451 1.4514 34.0497 1.4514 34.4255V36.6479H0.680346C0.304613 36.6479 0 36.9525 0 37.3283V40.2311C0 40.6068 0.304613 40.9114 0.680346 40.9114H41.3197C41.6954 40.9114 42 40.6068 42 40.2311V37.3283C42 36.9525 41.6954 36.6479 41.3197 36.6479H40.5486V34.4255C40.5486 34.0497 40.244 33.7451 39.8682 33.7451H37.6458V21.141C38.078 20.9009 38.3715 20.44 38.3715 19.9114ZM37.0108 19.9114C37.0108 19.9365 36.9905 19.9568 36.9654 19.9568H34.0626C34.0376 19.9568 34.0173 19.9365 34.0173 19.9114V19.1404H37.0108V19.9114ZM30.3888 33.7451V21.141C30.821 20.9009 31.1145 20.44 31.1145 19.9114V19.1404H32.6566V19.9114C32.6566 20.44 32.95 20.9009 33.3823 21.141V33.7451H30.3888ZM27.486 33.7451V21.3175H29.0281V33.7451H27.486ZM23.1317 33.7451V21.141C23.564 20.9009 23.8575 20.44 23.8575 19.9114V19.1404H25.3996V19.9114C25.3996 20.44 25.693 20.9009 26.1253 21.141V33.7451H23.1317ZM20.2289 33.7451V21.3175H21.7711V33.7451H20.2289ZM15.8747 33.7451V21.141C16.307 20.9009 16.6004 20.44 16.6004 19.9114V19.1404H18.1425V19.9114C18.1425 20.44 18.436 20.9009 18.8682 21.141V33.7451H15.8747ZM12.9719 33.7451V21.3175H14.514V33.7451H12.9719ZM8.61771 33.7451V21.141C9.04996 20.9009 9.34341 20.44 9.34341 19.9114V19.1404H10.8855V19.9114C10.8855 20.44 11.179 20.9009 11.6112 21.141V33.7451H8.61771ZM15.2397 19.1404V19.9114C15.2397 19.9365 15.2194 19.9568 15.1944 19.9568H12.2916C12.2665 19.9568 12.2462 19.9365 12.2462 19.9114V19.1404H15.2397ZM22.4968 19.1404V19.9114C22.4968 19.9365 22.4764 19.9568 22.4514 19.9568H19.5486C19.5236 19.9568 19.5032 19.9365 19.5032 19.9114V19.1404H22.4968ZM29.7538 19.1404V19.9114C29.7538 19.9365 29.7335 19.9568 29.7084 19.9568H26.8056C26.7806 19.9568 26.7603 19.9365 26.7603 19.9114V19.1404H29.7538ZM1.36069 13.7749L21 2.55246L40.6393 13.7749V14.8769H1.36069V13.7749ZM2.81209 16.2376H39.1879V17.7797H2.81209V16.2376ZM7.98272 19.1404V19.9114C7.98272 19.9365 7.9624 19.9568 7.93737 19.9568H5.03456C5.00952 19.9568 4.9892 19.9365 4.9892 19.9114V19.1404H7.98272ZM5.7149 21.3175H7.25702V33.7451H5.7149V21.3175ZM40.6393 39.5507H1.36069V38.0086H40.6393V39.5507ZM39.1879 36.6479H2.81209V35.1058H39.1879V36.6479ZM34.743 33.7451V21.3175H36.2851V33.7451H34.743Z" fill="#CC996C"/>
</svg>
