<svg width="42" height="42" viewBox="0 0 42 42" fill="none" xmlns="http://www.w3.org/2000/svg">
<g clip-path="url(#clip0)">
<path d="M7.02754 11.2002H10.5273C10.9141 11.2002 11.2275 10.8865 11.2275 10.5C11.2275 10.1136 10.9141 9.79987 10.5273 9.79987H7.02754C6.64078 9.79987 6.32739 10.1136 6.32739 10.5C6.32739 10.8865 6.64078 11.2002 7.02754 11.2002Z" fill="#CC996C"/>
<path d="M16.1274 11.2002H30.8273C31.2138 11.2002 31.5272 10.8865 31.5272 10.5C31.5272 10.1136 31.2138 9.79987 30.8273 9.79987H16.1274C15.7406 9.79987 15.4272 10.1136 15.4272 10.5C15.4272 10.8865 15.7406 11.2002 16.1274 11.2002Z" fill="#CC996C"/>
<path d="M16.1274 14.0001H30.8273C31.2138 14.0001 31.5272 13.6867 31.5272 13.2999C31.5272 12.9135 31.2138 12.6001 30.8273 12.6001H16.1274C15.7406 12.6001 15.4272 12.9135 15.4272 13.2999C15.4272 13.6867 15.7406 14.0001 16.1274 14.0001Z" fill="#CC996C"/>
<path d="M7.02754 16.8001H10.5273C10.9141 16.8001 11.2275 16.4867 11.2275 16.0999C11.2275 15.7135 10.9141 15.4001 10.5273 15.4001H7.02754C6.64078 15.4001 6.32739 15.7135 6.32739 16.0999C6.32739 16.4867 6.64078 16.8001 7.02754 16.8001Z" fill="#CC996C"/>
<path d="M16.1274 16.8001H30.8273C31.2138 16.8001 31.5272 16.4867 31.5272 16.0999C31.5272 15.7135 31.2138 15.4001 30.8273 15.4001H16.1274C15.7406 15.4001 15.4272 15.7135 15.4272 16.0999C15.4272 16.4867 15.7406 16.8001 16.1274 16.8001Z" fill="#CC996C"/>
<path d="M16.1274 19.6001H30.8273C31.2138 19.6001 31.5272 19.2867 31.5272 18.8999C31.5272 18.5135 31.2138 18.2001 30.8273 18.2001H16.1274C15.7406 18.2001 15.4272 18.5135 15.4272 18.8999C15.4272 19.2867 15.7406 19.6001 16.1274 19.6001Z" fill="#CC996C"/>
<path d="M7.02754 22.4H10.5273C10.9141 22.4 11.2275 22.0866 11.2275 21.7001C11.2275 21.3134 10.9141 21 10.5273 21H7.02754C6.64078 21 6.32739 21.3134 6.32739 21.7001C6.32739 22.0866 6.64078 22.4 7.02754 22.4Z" fill="#CC996C"/>
<path d="M16.1274 22.4H30.8273C31.2138 22.4 31.5272 22.0866 31.5272 21.7001C31.5272 21.3134 31.2138 21 30.8273 21H16.1274C15.7406 21 15.4272 21.3134 15.4272 21.7001C15.4272 22.0866 15.7406 22.4 16.1274 22.4Z" fill="#CC996C"/>
<path d="M16.1274 25.1999H30.8273C31.2138 25.1999 31.5272 24.8865 31.5272 24.5001C31.5272 24.1133 31.2138 23.7999 30.8273 23.7999H16.1274C15.7406 23.7999 15.4272 24.1133 15.4272 24.5001C15.4272 24.8865 15.7406 25.1999 16.1274 25.1999Z" fill="#CC996C"/>
<path d="M19.6272 36.4001H16.8273C16.4408 36.4001 16.1274 36.7135 16.1274 37.0999C16.1274 37.4867 16.4408 37.8001 16.8273 37.8001H18.2272V38.4999C18.2272 38.8867 18.5406 39.2001 18.9274 39.2001C19.3138 39.2001 19.6272 38.8867 19.6272 38.4999V37.8001C20.7872 37.8001 21.7274 36.8599 21.7274 35.7C21.7274 34.5403 20.7872 33.6002 19.6272 33.6002H18.2272C17.8408 33.6002 17.5274 33.2868 17.5274 32.9C17.5274 32.5136 17.8408 32.2002 18.2272 32.2002H21.0272C21.414 32.2002 21.7274 31.8865 21.7274 31.5C21.7274 31.1136 21.414 30.7999 21.0272 30.7999H19.6272V30.1001C19.6272 29.7133 19.3138 29.3999 18.9274 29.3999C18.5406 29.3999 18.2272 29.7133 18.2272 30.1001V30.7999C17.0676 30.7999 16.1274 31.7404 16.1274 32.9C16.1274 34.06 17.0676 35.0001 18.2272 35.0001H19.6272C20.014 35.0001 20.3274 35.3135 20.3274 35.7C20.3274 36.0867 20.014 36.4001 19.6272 36.4001Z" fill="#CC996C"/>
<path d="M5.62747 42H32.2274C33.387 42 34.3272 41.0598 34.3272 39.8999V6.99989H37.1275C37.9007 6.99989 38.5275 6.37312 38.5275 5.59991V3.50011C38.5249 1.56789 36.9592 0.00224305 35.0273 0H5.62747C4.4675 0 3.52734 0.940155 3.52734 2.10013V39.8999C3.52734 41.0598 4.4675 42 5.62747 42ZM18.9274 27.9999C21.4755 27.9999 23.7727 29.5351 24.7478 31.889C25.7229 34.2432 25.1839 36.9528 23.3821 38.7546C21.5803 40.5564 18.8707 41.0954 16.5165 40.1203C14.1622 39.1452 12.6274 36.8481 12.6274 34.3C12.6312 30.8223 15.4494 28.0037 18.9274 27.9999ZM35.0273 1.39998C36.187 1.39998 37.1275 2.34013 37.1275 3.50011V5.59991H9.12726V3.50011C9.12469 2.74004 8.87251 2.0024 8.40916 1.39998H35.0273ZM4.92732 2.10013C4.92732 1.71336 5.24071 1.39998 5.62747 1.39998C6.78712 1.39998 7.72728 2.34013 7.72728 3.50011V5.59991C7.72728 6.37312 8.35405 6.99989 9.12726 6.99989H32.9272V39.8999C32.9272 40.2866 32.6138 40.6 32.2274 40.6H23.3408C25.1019 39.3712 26.2683 37.4614 26.5573 35.3337C26.8463 33.206 26.2321 31.0543 24.8625 29.3999H30.8274C31.2139 29.3999 31.5272 29.0865 31.5272 28.7C31.5272 28.3133 31.2139 27.9999 30.8274 27.9999H23.3408C20.6953 26.135 17.1628 26.135 14.5173 27.9999H7.02745C6.64069 27.9999 6.3273 28.3133 6.3273 28.7C6.3273 29.0865 6.64069 29.3999 7.02745 29.3999H12.992C11.6231 31.0546 11.0092 33.2066 11.2988 35.3343C11.5888 37.4623 12.7559 39.3718 14.5173 40.6H5.62747C5.24071 40.6 4.92732 40.2866 4.92732 39.8999V2.10013Z" fill="#CC996C"/>
</g>
<defs>
<clipPath id="clip0">
<rect width="42" height="42" fill="white"/>
</clipPath>
</defs>
</svg>
