<svg width="49" height="49" viewBox="0 0 49 49" fill="none" xmlns="http://www.w3.org/2000/svg">
<path d="M48.0502 9.84757C48.047 9.84757 48.0438 9.84757 48.0407 9.84757H44.8209V8.74581C44.8382 8.30973 44.5561 7.91782 44.137 7.79601C41.9017 7.21023 39.5999 6.9165 37.289 6.9222C33.4898 6.9222 28.3134 7.77702 24.4858 11.6712C20.6866 7.73903 15.4722 6.9222 11.6825 6.9222C9.37164 6.9165 7.06981 7.21023 4.83446 7.79601C4.41537 7.91782 4.13328 8.30973 4.15061 8.74581V9.83808H0.949796C0.425271 9.83808 0 10.2633 0 10.7879V41.1244C0 41.6489 0.425271 42.0742 0.949796 42.0742C1.11292 42.0737 1.2732 42.0312 1.4152 41.9507C1.51018 41.9032 11.0081 36.7078 24.2673 40.0511H24.4098H24.4953C24.571 40.0602 24.6475 40.0602 24.7232 40.0511C38.0204 36.6793 47.5183 41.8652 47.5753 41.9507C47.8691 42.1204 48.2313 42.1204 48.5251 41.9507C48.8172 41.7821 48.998 41.4712 49 41.1339V10.7974C49 10.2728 48.5748 9.84757 48.0502 9.84757ZM1.89959 39.6142V11.7472H4.16961V35.5681C4.16367 36.0926 4.58407 36.5226 5.1086 36.5285C5.15989 36.5291 5.21118 36.5256 5.26187 36.5179C7.22676 36.2178 9.21053 36.0591 11.1981 36.043C13.9513 35.9952 16.693 36.4093 19.3094 37.2682C13.401 36.5537 7.40806 37.3613 1.89959 39.6142ZM11.1981 34.1529C9.47054 34.1568 7.745 34.2678 6.03121 34.4853V9.49615C7.88046 9.08418 9.76889 8.87391 11.6635 8.86928C15.2157 8.86928 20.1167 9.68611 23.517 13.5233L23.5455 37.1827C21.5699 35.891 17.7137 34.1529 11.1981 34.1529ZM25.445 13.5233C28.8453 9.7241 33.7463 8.86928 37.2985 8.86928C39.193 8.87486 41.0814 9.08501 42.9308 9.49615V34.4853C41.2266 34.2658 39.5106 34.1516 37.7924 34.1434C31.3148 34.1434 27.4491 35.8815 25.445 37.1732V13.5233ZM47.0909 39.6142C41.5707 37.3551 35.5639 36.5474 29.6431 37.2682C32.2718 36.4063 35.0266 35.992 37.7924 36.043C39.7924 36.0541 41.789 36.2097 43.7666 36.5084C44.2852 36.5871 44.7695 36.2304 44.8482 35.7118C44.8559 35.6611 44.8595 35.6099 44.8589 35.5586V11.7472H47.1289L47.0909 39.6142Z" fill="#CC996C"/>
<path d="M12.0624 22.7599L13.3425 19.6959H14.6906L12.3756 24.8253C12.2303 25.1461 12.0805 25.4003 11.9262 25.5879C11.7719 25.7725 11.6024 25.9056 11.4178 25.9874C11.2362 26.0691 10.9911 26.1099 10.6824 26.1099C10.5584 26.1099 10.3496 26.0827 10.056 26.0282C9.7655 25.9737 9.53551 25.9102 9.36605 25.8376L9.73827 24.8435C9.85326 24.9009 10.0061 24.9524 10.1967 24.9978C10.3904 25.0432 10.5342 25.0659 10.628 25.0659C10.7732 25.0659 10.9079 25.0054 11.032 24.8843C11.1591 24.7602 11.2907 24.5015 11.4269 24.1081L9.19809 19.6959H10.5826L12.0624 22.7599ZM16.7288 19.6959V22.2606H17.455C17.6245 22.2606 17.7743 22.1774 17.9044 22.0109C18.0346 21.8415 18.1647 21.5706 18.2948 21.1984C18.4249 20.8262 18.5687 20.3254 18.726 19.6959H20.047C19.8472 20.5675 19.6354 21.2483 19.4115 21.7386C19.1875 22.2288 18.9318 22.5693 18.6443 22.7599C18.8895 22.8991 19.0952 23.0777 19.2617 23.2956C19.4281 23.5104 19.5794 23.7994 19.7156 24.1626C19.8518 24.5257 20.0243 25.1309 20.2331 25.9783H18.9031C18.7851 25.5395 18.6776 25.1536 18.5808 24.8208C18.487 24.4879 18.3841 24.2125 18.2721 23.9946C18.1601 23.7737 18.0346 23.6088 17.8954 23.4998C17.7561 23.3909 17.5806 23.3364 17.3688 23.3364H16.7288V25.9783H15.4487V19.6959H16.7288ZM32.5754 21.8021C32.5754 22.5587 32.3968 23.12 32.0397 23.4862C31.6857 23.8524 31.1092 24.0355 30.3103 24.0355H29.2662V25.9783H27.9862V19.6959H30.3466C31.0577 19.6959 31.607 19.8623 31.9944 20.1952C32.3817 20.5251 32.5754 21.0607 32.5754 21.8021ZM31.2544 21.8112C31.2544 21.4571 31.1561 21.2014 30.9594 21.0441C30.7657 20.8867 30.4147 20.808 29.9063 20.808H29.2662V22.9188H29.7883C30.2573 22.9188 30.5811 22.887 30.7597 22.8235C30.9412 22.7569 31.0683 22.6464 31.141 22.4921C31.2166 22.3378 31.2544 22.1108 31.2544 21.8112ZM35.8618 26.1825V25.3292C34.9963 25.2596 34.3502 25.022 33.9235 24.6165C33.4999 24.211 33.288 23.6088 33.288 22.8099C33.288 22.014 33.5029 21.4163 33.9326 21.0168C34.3654 20.6174 35.0084 20.3844 35.8618 20.3178V19.4871H37.0602V20.3178C37.9105 20.3844 38.5476 20.6174 38.9712 21.0168C39.3949 21.4163 39.6067 22.014 39.6067 22.8099C39.6067 23.6027 39.3964 24.2034 38.9758 24.6119C38.5581 25.0175 37.9196 25.2565 37.0602 25.3292V26.1825H35.8618ZM34.5908 22.8099C34.5908 23.291 34.6967 23.6466 34.9086 23.8766C35.1234 24.1066 35.4412 24.2488 35.8618 24.3033V21.33C35.4472 21.3845 35.131 21.5252 34.9131 21.7522C34.6982 21.9792 34.5908 22.3317 34.5908 22.8099ZM38.3085 22.8099C38.3085 22.3317 38.2026 21.9837 37.9907 21.7658C37.7789 21.5449 37.4687 21.4027 37.0602 21.3391V24.3033C37.4687 24.2488 37.7789 24.1066 37.9907 23.8766C38.2026 23.6466 38.3085 23.291 38.3085 22.8099Z" fill="#CC996C"/>
</svg>
