<svg width="68" height="68" viewBox="0 0 68 68" fill="none" xmlns="http://www.w3.org/2000/svg">
<path d="M60.8292 3.30365H16.858C13.042 3.30365 9.93727 6.37931 9.93727 10.1475L9.6539 48.8664H1.07272C0.464575 48.8664 0 49.4041 0 50.0122V55.3409C0 60.3291 3.9919 64.4087 8.80971 64.6324V64.6964H45.838V64.6243C46.1133 64.6356 46.28 64.6964 46.4693 64.6964H46.4956C51.6339 64.6663 55.7758 60.4781 55.749 55.3398V21.4737H66.9273C67.5354 21.4737 68 20.9231 68 20.3155V10.5384C68.007 6.56482 64.8028 3.33215 60.8292 3.30365V3.30365ZM9.29149 62.4939H9.28397C5.36681 62.4939 2.20243 59.2564 2.20243 55.3398V51.0688H37.166V55.3215C37.1574 57.8003 38.1365 60.1802 39.8867 61.9353C40.0728 62.1224 40.2674 62.2186 40.4664 62.4939H9.29149ZM53.5465 55.3387C53.5465 59.2564 50.4128 62.4939 46.494 62.4939H46.4714C42.5333 62.4654 39.3593 59.2602 39.3684 55.3221V50.0122C39.3716 49.3955 38.8839 48.8879 38.2672 48.8664H11.8563L12.1397 10.1551C12.1397 7.59398 14.2561 5.50608 16.858 5.50608H55.6301C54.3751 6.8826 53.5465 8.62422 53.5465 10.568V55.3387ZM65.7975 10.5578V19.2713H55.749V10.5659C55.749 7.8096 58.0417 5.50608 60.7969 5.50608H60.8276C63.5897 5.5335 65.8104 7.78701 65.7975 10.5497V10.5578Z" fill="#CC996C"/>
<path d="M25.8586 30.4093L31.5362 34.2909C31.9067 34.5464 32.3966 34.5464 32.767 34.2909L38.4274 30.4104C40.3938 29.0688 41.8461 26.2641 41.8461 23.8859V16.0322C41.858 15.6171 41.6289 15.2321 41.259 15.0434L32.6143 10.7912C32.3111 10.6406 31.9551 10.6406 31.6518 10.7912L23.0233 15.0315C22.6534 15.2203 22.4249 15.6053 22.4372 16.0204V23.8859C22.4372 26.2641 23.8928 29.0688 25.8586 30.4093ZM24.6397 16.7075L32.1417 13.006L39.6437 16.7178V23.8859C39.6437 25.5447 38.5565 27.6546 37.1848 28.5897L32.1288 32.0477L27.0927 28.5902C25.721 27.6541 24.6397 25.5447 24.6397 23.8859V16.7075Z" fill="#CC996C"/>
<path d="M30.2791 25.5484C30.4845 25.7581 30.7651 25.8769 31.0587 25.8785H31.0614C31.3539 25.8775 31.6341 25.7602 31.84 25.5527L36.2207 21.1704C36.6514 20.7403 36.6514 20.0423 36.2212 19.6122C35.7916 19.1815 35.0937 19.1815 34.6635 19.6116L31.0652 23.2094L29.6268 21.757C29.1983 21.3247 28.5009 21.3215 28.0686 21.7501C27.6362 22.1786 27.6336 22.876 28.0616 23.3083L30.2791 25.5484Z" fill="#CC996C"/>
<path d="M45.838 37.4413H19.4088C18.8007 37.4413 18.3076 37.9344 18.3076 38.5425C18.3076 39.1506 18.8007 39.6437 19.4088 39.6437H45.838C46.4461 39.6437 46.9392 39.1506 46.9392 38.5425C46.9392 37.9344 46.4461 37.4413 45.838 37.4413Z" fill="#CC996C"/>
<path d="M45.838 42.5344H19.4088C18.8007 42.5344 18.3076 43.0275 18.3076 43.6356C18.3076 44.2438 18.8007 44.7369 19.4088 44.7369H45.838C46.4461 44.7369 46.9392 44.2438 46.9392 43.6356C46.9392 43.0275 46.4461 42.5344 45.838 42.5344Z" fill="#CC996C"/>
</svg>
